<?xml version="1.0" standalone="yes"?>

<svg version="1.1" viewBox="0.0 0.0 231.29921259842519 100.0" fill="none" stroke="none" stroke-linecap="square" stroke-miterlimit="10" xmlns="http://www.w3.org/2000/svg" xmlns:xlink="http://www.w3.org/1999/xlink"><clipPath id="p.0"><path d="m0 0l231.29921 0l0 100.0l-231.29921 0l0 -100.0z" clip-rule="nonzero"></path></clipPath><g clip-path="url(#p.0)"><path fill="#000000" fill-opacity="0.0" d="m0 0l231.29921 0l0 100.0l-231.29921 0z" fill-rule="evenodd"></path><path fill="#000000" fill-opacity="0.0" d="m-7.3700786 -15.435696l323.77954 0l0 117.19685l-323.77954 0z" fill-rule="evenodd"></path><path fill="#62cb31" d="m32.926796 70.3643l6.40625 -30.078129l-11.765625 0l-6.40625 30.078129l-11.515625 0l11.59375 -54.42188q-5.3125 2.234375 -8.265625 6.671875q-2.9375 4.421875 -2.9375 10.875q0 1.515625 0.171875 2.484375q0.171875 0.953125 0.390625 1.515625q0.21875 0.5625 0.390625 0.875q0.171875 0.3125 0.171875 0.546875q-2.0625 0 -3.6718745 -0.40625q-1.59375 -0.40625 -2.6875 -1.296875q-1.0937502 -0.90625 -1.6406252 -2.390625q-0.546875 -1.484375 -0.546875 -3.671875q0 -2.65625 1.140625 -5.234375q1.1562502 -2.578125 3.1406252 -4.875q1.9999995 -2.3125 4.7187495 -4.265625q2.71875 -1.953125 5.84375 -3.375q3.125 -1.4375 6.484375 -2.234375q3.359375 -0.796875 6.71875 -0.796875q0.890625 0 1.65625 0.046875q0.765625 0.03125 1.546875 0.109375l-5.125 23.828125l11.765625 0l5.109375 -23.828125l11.53125 0l-12.703125 59.843754l-11.515625 0zm55.34375 -14.343754q-1.671875 2.8125 -3.84375 5.46875q-2.171875 2.6562538 -4.890625 4.734379q-2.703125 2.0625 -6.015625 3.34375q-3.296875 1.265625 -7.234375 1.265625q-2.859375 0 -5.171875 -0.71875q-2.296875 -0.734375 -3.9375 -2.25q-1.640625 -1.53125 -2.515625 -3.9218788q-0.890625 -2.40625 -0.890625 -5.8125q0 -2.296875 0.46875 -5.296875q0.46875 -3.015625 1.484375 -6.171875q1.03125 -3.171875 2.703125 -6.21875q1.6875 -3.046875 4.0625 -5.453125q2.390625 -2.40625 5.59375 -3.859375q3.203125 -1.46875 7.296875 -1.46875q2.703125 0 4.390625 0.640625q1.703125 0.640625 2.703125 1.703125q1.0 1.046875 1.359375 2.4375q0.375 1.390625 0.375 2.875q0 3.46875 -1.53125 6.46875q-1.515625 2.984375 -4.078125 5.21875q-2.546875 2.21875 -5.875 3.59375q-3.3125 1.359375 -6.90625 1.59375q-0.078125 0.890625 -0.140625 1.703125q-0.0625 0.796875 -0.0625 1.5q0 2.03125 0.375 3.34375q0.375 1.296875 1.09375 2.046875q0.71875 0.734375 1.796875 1.03125q1.078125 0.2968788 2.515625 0.2968788q2.390625 0 4.3125 -0.6250038q1.9375 -0.625 3.609375 -1.71875q1.6875 -1.09375 3.1875 -2.578125q1.515625 -1.484375 3.03125 -3.171875l2.734375 0zm-21.828125 -5.65625q2.265625 -0.15625 4.375 -1.28125q2.109375 -1.140625 3.703125 -2.953125q1.609375 -1.828125 2.5625 -4.140625q0.953125 -2.328125 0.953125 -4.828125q0 -1.484375 -0.4375 -2.375q-0.421875 -0.90625 -1.546875 -0.90625q-1.53125 0 -3.0 1.46875q-1.453125 1.453125 -2.75 3.796875q-1.28125 2.34375 -2.28125 5.296875q-1.0 2.953125 -1.578125 5.921875zm52.53125 5.65625q-1.671875 2.8125 -3.84375 5.46875q-2.171875 2.6562538 -4.890625 4.734379q-2.703125 2.0625 -6.015625 3.34375q-3.296875 1.265625 -7.234375 1.265625q-2.859375 0 -5.171875 -0.71875q-2.296875 -0.734375 -3.9375 -2.25q-1.640625 -1.53125 -2.515625 -3.9218788q-0.890625 -2.40625 -0.890625 -5.8125q0 -2.296875 0.46875 -5.296875q0.46875 -3.015625 1.484375 -6.171875q1.03125 -3.171875 2.703125 -6.21875q1.6875 -3.046875 4.0625 -5.453125q2.390625 -2.40625 5.59375 -3.859375q3.203125 -1.46875 7.296875 -1.46875q2.703125 0 4.390625 0.640625q1.703125 0.640625 2.703125 1.703125q1.0 1.046875 1.359375 2.4375q0.375 1.390625 0.375 2.875q0 3.46875 -1.53125 6.46875q-1.515625 2.984375 -4.078125 5.21875q-2.546875 2.21875 -5.875 3.59375q-3.3125 1.359375 -6.90625 1.59375q-0.078125 0.890625 -0.140625 1.703125q-0.0625 0.796875 -0.0625 1.5q0 2.03125 0.375 3.34375q0.375 1.296875 1.09375 2.046875q0.71875 0.734375 1.796875 1.03125q1.078125 0.2968788 2.515625 0.2968788q2.390625 0 4.3125 -0.6250038q1.9375 -0.625 3.609375 -1.71875q1.6875 -1.09375 3.1875 -2.578125q1.515625 -1.484375 3.03125 -3.171875l2.734375 0zm-21.828125 -5.65625q2.265625 -0.15625 4.375 -1.28125q2.109375 -1.140625 3.703125 -2.953125q1.609375 -1.828125 2.5625 -4.140625q0.953125 -2.328125 0.953125 -4.828125q0 -1.484375 -0.4375 -2.375q-0.421875 -0.90625 -1.546875 -0.90625q-1.53125 0 -3.0 1.46875q-1.453125 1.453125 -2.75 3.796875q-1.28125 2.34375 -2.28125 5.296875q-1.0 2.953125 -1.578125 5.921875zm11.828125 40.000004l13.359375 -62.968754l11.531258 0l-1.296875 6.015625q1.765625 -1.484375 4.03125 -2.453125q2.265625 -0.984375 5.3125 -0.984375q2.03125 0 3.828125 0.640625q1.796875 0.640625 3.09375 2.109375q1.3125 1.46875 2.078125 3.890625q0.765625 2.421875 0.765625 5.96875q0 2.703125 -0.375 5.84375q-0.375 3.140625 -1.28125 6.296875q-0.890625 3.140625 -2.359375 6.046875q-1.453125 2.90625 -3.640625 5.140629q-2.1875 2.21875 -5.1875 3.578125q-2.984375 1.34375 -6.84375 1.34375q-1.53125 0 -2.671875 -0.234375q-1.125 -0.234375 -1.9218826 -0.625q-0.796875 -0.390625 -1.328125 -0.921875q-0.53125 -0.53125 -0.875 -1.078125l-4.140625 19.5l-12.078125 2.890625zm17.5 -28.328129q0.234375 0.671875 0.953125 1.265625q0.7343826 0.578125 2.0937576 0.578125q2.109375 0 3.75 -1.078125q1.640625 -1.078125 2.890625 -2.84375q1.25 -1.78125 2.109375 -4.046875q0.859375 -2.265625 1.40625 -4.640625q0.546875 -2.390625 0.796875 -4.71875q0.265625 -2.328125 0.265625 -4.203125q0 -2.296875 -0.4375 -3.625q-0.421875 -1.328125 -1.03125 -1.984375q-0.609375 -0.671875 -1.3125 -0.84375q-0.703125 -0.1875 -1.25 -0.1875q-1.359375 0 -2.875 1.0q-1.5 1.0 -2.625 2.953125l-4.7343826 22.375zm61.093758 -6.015625q-3.125 3.640625 -6.265625 6.0q-3.140625 2.3593788 -5.953125 4.000004q-1.25 1.328125 -2.796875 2.25q-1.546875 0.921875 -3.203125 1.484375q-1.65625 0.5625 -3.359375 0.8125q-1.703125 0.265625 -3.21875 0.265625q-3.015625 0 -5.21875 -0.921875q-2.203125 -0.921875 -3.65625 -2.375q-1.453125 -1.46875 -2.125 -3.28125q-0.6875 -1.8281288 -0.6875 -3.6562538q0 -1.40625 0.375 -2.59375q0.359375 -1.203125 0.953125 -2.140625q0.578125 -0.9375 1.34375 -1.609375q0.765625 -0.6875 1.59375 -1.078125q3.359375 -6.015625 5.65625 -11.890625q2.3125 -5.890625 4.1875 -11.828125l11.828125 -1.5625q0.234375 5.203125 0.453125 9.015625q0.21875 3.796875 0.40625 6.59375q0.203125 2.796875 0.359375 4.75q0.15625 1.953125 0.28125 3.453125q0.140625 1.5 0.203125 2.734375q0.0625 1.234375 0.0625 2.5625q0 0.890625 -0.0625 1.640625q-0.0625 0.734375 -0.25 1.40625q1.75 -1.015625 3.171875 -2.015625q1.4375 -1.0 2.5625 -2.015625l3.359375 0zm-32.21875 2.890625q0 2.8125 1.109375 4.203125q1.109375 1.3906288 3.765625 1.3906288q1.328125 0 2.578125 -0.375q1.25 -0.3750038 2.21875 -1.2500038q0.984375 -0.875 1.5625 -2.28125q0.59375 -1.40625 0.59375 -3.515625q0 -1.015625 -0.0625 -1.96875q-0.046875 -0.96875 -0.125 -2.03125q-0.078125 -1.078125 -0.21875 -2.40625q-0.140625 -1.328125 -0.3125 -3.078125q-0.171875 -1.765625 -0.375 -4.0625q-0.1875 -2.3125 -0.421875 -5.40625q-1.21875 3.90625 -2.859375 7.578125q-1.640625 3.671875 -3.625 7.546875q0.78125 0.421875 1.296875 1.09375q0.53125 0.65625 0.53125 1.671875q0 0.75 -0.234375 1.453125q-0.234375 0.703125 -0.703125 1.265625q-0.46875 0.5625 -1.109375 0.90625q-0.640625 0.328125 -1.46875 0.328125q-0.65625 0 -1.25 -0.1875q-0.578125 -0.203125 -0.890625 -0.875zm55.734375 17.859379q-0.859375 4.296875 -2.484375 6.953125q-1.609375 2.65625 -3.609375 4.140625q-1.984375 1.484375 -4.15625 1.984375q-2.171875 0.515625 -4.15625 0.515625q-1.84375 0 -3.46875 -0.484375q-1.609375 -0.484375 -2.828125 -1.453125q-1.203125 -0.953125 -1.9375 -2.421875q-0.71875 -1.453125 -0.71875 -3.40625q0 -2.5 1.1875 -4.421875q1.203125 -1.90625 3.078125 -3.34375q1.875 -1.421875 4.1875 -2.4375q2.328125 -1.015625 4.59375 -1.71875l0.984375 -4.296875q-1.296875 1.40625 -2.59375 2.28125q-1.28125 0.875 -2.5 1.359375q-1.203125 0.46875 -2.34375 0.640625q-1.125 0.171875 -2.171875 0.171875q-1.796875 0 -3.359375 -0.546875q-1.5625 -0.546875 -2.71875 -1.71875q-1.15625 -1.171875 -1.828125 -2.96875q-0.65625 -1.7968788 -0.65625 -4.343754q0 -1.09375 0.15625 -2.390625q0.15625 -1.3125 0.46875 -2.84375l5.4375 -25.65625l11.515625 0l-5.734375 27.1875q-0.234375 1.015625 -0.234375 2.03125q0 0.703125 0.109375 1.328125q0.125 0.625 0.390625 1.109375q0.28125 0.484375 0.71875 0.78125q0.453125 0.296875 1.15625 0.296875q1.09375 0 2.046875 -0.484375q0.96875 -0.5 1.75 -1.375q0.78125 -0.875 1.375 -2.078125q0.609375 -1.21875 1.078125 -2.625l5.59375 -26.171875l11.515625 0l-7.921875 37.10938q1.828125 -0.625 3.3125 -1.5q1.484375 -0.890625 2.71875 -2.2343788q1.234375 -1.34375 2.21875 -3.21875q1.0 -1.875 1.828125 -4.5l3.359375 0q-1.21875 3.984375 -2.875 6.640625q-1.65625 2.6562538 -3.53125 4.359379q-1.875 1.703125 -3.875 2.609375q-1.984375 0.890625 -3.859375 1.359375l-1.21875 5.78125zm-11.125 -2.0625q-1.5625 0.578125 -2.96875 1.265625q-1.40625 0.6875 -2.484375 1.5q-1.078125 0.828125 -1.71875 1.8125q-0.640625 1.0 -0.640625 2.21875q0 0.421875 0.15625 0.890625q0.15625 0.46875 0.484375 0.859375q0.328125 0.390625 0.828125 0.625q0.515625 0.234375 1.21875 0.234375q1.25 0 2.5625 -1.734375q1.3125 -1.734375 2.09375 -5.375l0.46875 -2.296875z" fill-rule="nonzero"></path></g></svg>

